<svg id="visual" viewBox="0 0 900 600" width="900" height="600" xmlns="http://www.w3.org/2000/svg" xmlns:xlink="http://www.w3.org/1999/xlink" version="1.1"><path d="M0 149L25 139.5C50 130 100 111 150 110.3C200 109.7 250 127.3 300 136.5C350 145.7 400 146.3 450 132.3C500 118.3 550 89.7 600 84C650 78.3 700 95.7 750 111.2C800 126.7 850 140.3 875 147.2L900 154L900 0L875 0C850 0 800 0 750 0C700 0 650 0 600 0C550 0 500 0 450 0C400 0 350 0 300 0C250 0 200 0 150 0C100 0 50 0 25 0L0 0Z" fill="#002469" stroke-linecap="round" stroke-linejoin="miter"></path></svg>